<?xml version="1.0" standalone="no"?>
<!DOCTYPE svg PUBLIC "-//W3C//DTD SVG 20010904//EN"
 "http://www.w3.org/TR/2001/REC-SVG-20010904/DTD/svg10.dtd">
<svg version="1.0" xmlns="http://www.w3.org/2000/svg"
 width="256.000000pt" height="256.000000pt" viewBox="0 0 256.000000 256.000000"
 preserveAspectRatio="xMidYMid meet">
<metadata>
Created by potrace 1.11, written by Peter Selinger 2001-2013
</metadata>
<g transform="translate(0.000000,256.000000) scale(0.100000,-0.100000)"
fill="#000000" stroke="none">
<path d="M1140 2554 c-23 -4 -124 -22 -161 -29 -9 -2 -57 -17 -107 -34 -262
-87 -488 -260 -655 -498 -51 -73 -140 -263 -165 -353 -39 -136 -50 -227 -47
-385 4 -210 34 -339 120 -521 143 -306 405 -543 725 -658 153 -55 251 -71 440
-71 114 0 145 3 250 21 61 10 236 72 312 110 348 175 594 492 680 879 26 118
32 357 12 470 -99 552 -509 961 -1064 1060 -41 8 -304 14 -340 9z m325 -169
c94 -20 121 -27 178 -46 273 -94 510 -303 640 -564 83 -167 116 -320 112 -514
-3 -138 -4 -150 -30 -256 -76 -309 -296 -581 -590 -727 -76 -38 -168 -72 -242
-89 -27 -6 -57 -13 -68 -16 -40 -9 -281 -11 -340 -2 -170 27 -333 90 -477 186
-92 61 -229 198 -292 292 -93 139 -143 263 -181 446 -14 69 -14 282 0 365 51
291 208 546 445 724 123 93 340 182 489 202 25 3 48 8 50 10 7 6 271 -3 306
-11z"/>
<path d="M1200 1641 l0 -439 53 -43 c28 -24 54 -46 57 -49 3 -3 34 -30 70 -60
91 -78 101 -85 240 -204 l125 -106 30 33 c61 65 75 88 62 100 -7 7 -55 48
-107 92 -52 44 -100 84 -106 90 -6 5 -68 57 -137 115 l-127 105 0 403 0 402
-80 0 -80 0 0 -439z"/>
</g>
</svg>
